<svg xmlns="http://www.w3.org/2000/svg" viewBox="0 0 519.57293 519.57302">
  <defs>
    <style>
      .a {
        fill: #23284a;
      }
    </style>
  </defs>
  <title>make_My_Blinds_logo</title>
  <path class="a" d="M194.69339,517.45391a2.12969,2.12969,0,0,1-.64015-1.56661V391.31053a2.1383,2.1383,0,0,1,.64015-1.56661,2.10668,2.10668,0,0,1,1.55439-.64518h16.82156a2.11521,2.11521,0,0,1,1.55439.64518,2.14882,2.14882,0,0,1,.64015,1.56661V515.88729a2.14011,2.14011,0,0,1-.64015,1.56661,2.10488,2.10488,0,0,1-1.55439.64518H196.24779A2.09644,2.09644,0,0,1,194.69339,517.45391Z"/>
  <path class="a" d="M242.60017,517.45391a2.12969,2.12969,0,0,1-.64015-1.56661V391.31053a2.1383,2.1383,0,0,1,.64015-1.56661,2.10668,2.10668,0,0,1,1.55439-.64518h17.55278a2.39686,2.39686,0,0,1,2.5606,1.6584L292.60952,465.762c.24285.368.48569.5525.73122.5525.24285,0,.36516-.24476.36516-.737v-74.267a2.1383,2.1383,0,0,1,.64015-1.56661,2.10668,2.10668,0,0,1,1.55439-.64518h16.63943a2.11664,2.11664,0,0,1,1.55439.64518,2.15154,2.15154,0,0,1,.63926,1.56661V515.88729a2.14281,2.14281,0,0,1-.63926,1.56661,2.10629,2.10629,0,0,1-1.55439.64518h-17.7367a2.39384,2.39384,0,0,1-2.55971-1.6584l-28.52461-75.18932c-.12232-.368-.33659-.521-.64015-.46072a.56845.56845,0,0,0-.45712.64518l.183,74.45145a2.14011,2.14011,0,0,1-.64015,1.56661,2.10432,2.10432,0,0,1-1.5535.64518h-16.4564A2.09644,2.09644,0,0,1,242.60017,517.45391Z"/>
  <path class="a" d="M441.07785,510.26692q-9.325-9.30384-9.32547-24.049v-5.16055a2.13974,2.13974,0,0,1,.64015-1.56661,2.1093,2.1093,0,0,1,1.55439-.64428h16.4564a2.1173,2.1173,0,0,1,1.5535.64428,2.15027,2.15027,0,0,1,.64015,1.56661V485.112q0,7.18743,3.657,11.60967a11.38834,11.38834,0,0,0,9.14245,4.42269,11.88689,11.88689,0,0,0,9.32547-4.14644q3.65609-4.14644,3.657-10.96449a16.51883,16.51883,0,0,0-2.01152-8.2011,25.84005,25.84005,0,0,0-5.57653-6.72627q-3.56636-3.13143-11.61108-9.02984a162.73281,162.73281,0,0,1-14.719-11.79414,44.39455,44.39455,0,0,1-9.32547-12.43932,36.31744,36.31744,0,0,1-3.74894-16.86291q0-15.294,9.14245-24.32524,9.14155-9.02715,23.95339-9.02984,15.35958,0,24.6846,9.49056,9.325,9.49281,9.32547,25.15489v4.42269a2.14011,2.14011,0,0,1-.64015,1.56661,2.10488,2.10488,0,0,1-1.55439.64518H479.65915a2.09644,2.09644,0,0,1-1.55439-.64518,2.12969,2.12969,0,0,1-.64015-1.56661v-4.79162q0-7.18608-3.56591-11.51789a11.6016,11.6016,0,0,0-9.41654-4.33,11.16666,11.16666,0,0,0-8.77639,3.962q-3.47529,3.96422-3.474,10.96449a17.22725,17.22725,0,0,0,3.748,11.24164q3.74581,4.60941,14.719,12.71557,11.15173,8.47915,16.82246,13.6379a38.806,38.806,0,0,1,8.77639,11.42521,33.27433,33.27433,0,0,1,3.10879,14.92736q0,15.66523-9.41654,25.15489-9.42011,9.49416-24.59354,9.49056Q450.40109,519.573,441.07785,510.26692Z"/>
  <path class="a" d="M85.809,464.28715a31.97356,31.97356,0,0,0-11.15307-12.34664c-.36605-.36893-.24642-.737.36516-1.1059q13.34538-8.10661,13.34851-27.09043,0-16.95289-9.87456-25.80007-9.87277-8.84493-27.24431-8.84538H22.361a2.10048,2.10048,0,0,0-1.49331.58569,2.37523,2.37523,0,0,0-.70125,1.7346V515.76435a2.40086,2.40086,0,0,0,.7059,1.75378,2.091,2.091,0,0,0,1.48866.581H41.37172V420.28117h.00536V408.44879a.91786.91786,0,0,1,.91424-.92143h9.32547q7.49564,0,11.70215,4.79162,4.20383,4.79432,4.20517,13.637,0,8.47915-4.20517,13.0845c-3.0635,3.36716-8.51537,4.27344-11.24986,4.51735a1.83,1.83,0,0,0-1.66072,1.83407V457.4691a1.83572,1.83572,0,0,0,1.82849,1.84286h.65935a13.78243,13.78243,0,0,1,11.52,5.4359q4.20383,5.43815,4.20517,15.02,0,9.39833-4.20517,14.55843a14.06214,14.06214,0,0,1-11.52,5.15965h-.65935a1.83572,1.83572,0,0,0-1.82849,1.84286v14.92736a1.83572,1.83572,0,0,0,1.82849,1.84286h2.3057q15.72251,0,25.50689-9.21431,9.78036-9.21341,9.7826-26.169Q89.832,472.03113,85.809,464.28715Z"/>
  <path class="a" d="M132.61762,391.31053a2.14882,2.14882,0,0,0-.64015-1.56661,2.11521,2.11521,0,0,0-1.55439-.64518H113.60151a2.10668,2.10668,0,0,0-1.55439.64518,2.1383,2.1383,0,0,0-.64015,1.56661V515.88729a2.12969,2.12969,0,0,0,.64015,1.56661,2.09644,2.09644,0,0,0,1.55439.64518h19.03307Z"/>
  <path class="a" d="M174.6415,500.37842a2.30893,2.30893,0,0,0-1.70581-.708h-29.436a1.83572,1.83572,0,0,0-1.82849,1.84286v14.7429a1.83572,1.83572,0,0,0,1.82849,1.84286h29.42361a2.33073,2.33073,0,0,0,1.71672-.706,2.138,2.138,0,0,0,.581-1.50579v-14.005A2.14547,2.14547,0,0,0,174.6415,500.37842Z"/>
  <path class="a" d="M399.84756,398.682q-9.42011-9.58054-25.14173-9.58324H343.43849a2.1005,2.1005,0,0,0-1.49331.58568,2.37516,2.37516,0,0,0-.70124,1.73456V515.76446a2.40068,2.40068,0,0,0,.70589,1.75367,2.091,2.091,0,0,0,1.48867.581h19.1286l-.11249-109.6503a.81069.81069,0,0,1,.91424-.92143h10.78791a12.12608,12.12608,0,0,1,10.14865,4.8834q3.74447,4.88475,3.748,13.17628v56.02373q-.18481,8.11066-3.93107,12.99182a11.7613,11.7613,0,0,1-9.7826,4.8834l-.938.01577a1.836,1.836,0,0,0-1.798,1.84261v14.91185a1.83572,1.83572,0,0,0,1.82849,1.84286h1.2736q15.72251,0,25.14173-9.58324,9.41475-9.57919,9.41654-25.6156V424.29758Q409.2641,408.26387,399.84756,398.682Z"/>
  <path class="a" d="M145.15293,290.60774a39.44888,39.44888,0,0,1-1.66673,4.7141l-4.75371,12.06181h12.838l-4.75371-12.06181A42.43777,42.43777,0,0,1,145.15293,290.60774Z"/>
  <path class="a" d="M0,0V361.33554H519.57293V0ZM99.10941,329.42973H87.06374V301.71148c0-.53112.02348-1.118.07923-1.7577q-.40054.95955-.71306,1.59778L72.95519,330.38781,59.322,301.71148q-.23769-.5568-.63383-1.7577v29.476H46.64251V273.51345H58.92587L71.846,302.03133q.5546,1.27866,1.34689,3.51393.79229-2.2338,1.34689-3.51393L87.856,273.51345H99.10941Zm60.62451,0L155.614,318.56662H134.76813l-4.11988,10.86311H117.49043l21.87588-55.91628h11.5703l21.95511,55.91628Zm67.67585,0-13.554-25.40155-10.54033,13.26051v12.141H191.26982V273.51345h12.04567v26.44033l20.76668-26.44033h14.50176L222.0193,293.8033l19.499,35.62644Zm74.13738,0h-41.4512V273.51345h39.86663v11.50281h-27.821v9.82581h15.53466v11.50281H272.14162v11.50281h29.40553Zm104.14152,0H393.643V301.71148c0-.53112.02348-1.118.07923-1.7577q-.40054.95955-.71306,1.59778l-13.47472,28.83626-13.63318-28.67633q-.23769-.5568-.63383-1.7577v29.476H353.22177V273.51345h12.28336l12.92012,28.51788q.5546,1.27866,1.34689,3.51393.79229-2.2338,1.34689-3.51393l13.31626-28.51788h11.25339Zm51.1611-21.7277v21.7277H444.88333V307.702l-21.0836-34.18859h13.63318l13.47179,21.24792,13.39549-21.24792h13.63318Z"/>
</svg>
